<mxfile host="65bd71144e">
    <diagram id="5b9DiGQJHYssFY56eFDj" name="Page-1">
        <mxGraphModel dx="1997" dy="567" grid="1" gridSize="10" guides="1" tooltips="1" connect="1" arrows="1" fold="1" page="1" pageScale="1" pageWidth="850" pageHeight="1100" math="0" shadow="0">
            <root>
                <mxCell id="0"/>
                <mxCell id="1" parent="0"/>
                <mxCell id="9" style="edgeStyle=none;html=1;entryX=1;entryY=0.5;entryDx=0;entryDy=0;curved=1;" edge="1" parent="1" source="2" target="7">
                    <mxGeometry relative="1" as="geometry">
                        <mxPoint x="450" y="440" as="targetPoint"/>
                        <Array as="points">
                            <mxPoint x="540" y="220"/>
                        </Array>
                    </mxGeometry>
                </mxCell>
                <mxCell id="10" value="REGISTERS&lt;br&gt;FEED" style="edgeLabel;html=1;align=center;verticalAlign=middle;resizable=0;points=[];" vertex="1" connectable="0" parent="9">
                    <mxGeometry x="-0.1029" y="2" relative="1" as="geometry">
                        <mxPoint as="offset"/>
                    </mxGeometry>
                </mxCell>
                <mxCell id="2" value="" style="swimlane;startSize=0;" vertex="1" parent="1">
                    <mxGeometry x="240" y="90" width="200" height="200" as="geometry"/>
                </mxCell>
                <mxCell id="4" value="&lt;span style=&quot;font-weight: 700&quot;&gt;MAIN SMART CONTRACT&lt;/span&gt;" style="text;html=1;align=center;verticalAlign=middle;resizable=0;points=[];autosize=1;strokeColor=none;fillColor=none;" vertex="1" parent="2">
                    <mxGeometry x="20" y="10" width="160" height="20" as="geometry"/>
                </mxCell>
                <mxCell id="6" style="edgeStyle=none;html=1;entryX=0;entryY=0.5;entryDx=0;entryDy=0;curved=1;" edge="1" parent="1" source="5" target="7">
                    <mxGeometry relative="1" as="geometry"/>
                </mxCell>
                <mxCell id="5" value="Rapsberry Keeper" style="rounded=0;whiteSpace=wrap;html=1;" vertex="1" parent="1">
                    <mxGeometry x="-40" y="330" width="120" height="60" as="geometry"/>
                </mxCell>
                <mxCell id="7" value="" style="swimlane;startSize=0;" vertex="1" parent="1">
                    <mxGeometry x="240" y="330" width="200" height="200" as="geometry"/>
                </mxCell>
                <mxCell id="8" value="&lt;b&gt;PRICE FEEDS&lt;/b&gt;" style="text;html=1;align=center;verticalAlign=middle;resizable=0;points=[];autosize=1;strokeColor=none;fillColor=none;" vertex="1" parent="7">
                    <mxGeometry x="50" y="10" width="100" height="20" as="geometry"/>
                </mxCell>
                <mxCell id="12" style="edgeStyle=none;curved=1;html=1;" edge="1" parent="1" source="11" target="2">
                    <mxGeometry relative="1" as="geometry"/>
                </mxCell>
                <mxCell id="11" value="Actor" style="shape=umlActor;verticalLabelPosition=bottom;verticalAlign=top;html=1;outlineConnect=0;" vertex="1" parent="1">
                    <mxGeometry x="620" y="160" width="30" height="60" as="geometry"/>
                </mxCell>
            </root>
        </mxGraphModel>
    </diagram>
</mxfile>